<svg xmlns="http://www.w3.org/2000/svg" version="1.1" xmlns:xlink="http://www.w3.org/1999/xlink" xmlns:svgjs="http://svgjs.com/svgjs" width="1000" height="1000"><rect width="1000" height="1000" rx="0" ry="0" fill="#000000"></rect><g transform="matrix(2.262443438914027,0,0,2.262443438914027,0,0.000008314847946166992)"><svg xmlns="http://www.w3.org/2000/svg" version="1.1" xmlns:xlink="http://www.w3.org/1999/xlink" xmlns:svgjs="http://svgjs.com/svgjs" width="442" height="442"><svg stroke="black" color="black" fill="white" version="1.0" xmlns="http://www.w3.org/2000/svg" viewBox="0 0 442.000000 442.000000" preserveAspectRatio="xMidYMid meet"><g transform="translate(0.000000,442.000000) scale(0.100000,-0.100000)"><path d="M0 2210 l0 -2210 2210 0 2210 0 0 2210 0 2210 -2210 0 -2210 0 0 -2210z m1534 1758 c-48 -227 -162 -372 -379 -481 l-70 -35 -43 30 c-23 16 -42 30 -42 32 0 19 76 201 102 243 48 79 148 169 234 210 74 35 151 60 190 62 21 1 21 0 8 -61z m1356 47 c207 -55 373 -210 435 -406 14 -44 25 -85 25 -92 0 -7 -18 -25 -40 -40 l-40 -28 -93 48 c-173 90 -296 240 -346 423 -34 120 -34 120 59 95z m-2024 -422 c13 -82 15 -140 10 -243 -3 -74 -9 -148 -12 -164 -7 -30 -7 -29 51 18 74 60 114 80 209 106 70 20 255 42 266 33 2 -2 -13 -39 -35 -81 -53 -104 -147 -198 -246 -245 -41 -19 -132 -49 -203 -67 -152 -39 -132 -48 -206 103 -105 211 -106 396 -3 565 21 34 58 83 82 109 l45 47 12 -37 c7 -20 20 -85 30 -144z m2822 -25 c54 -112 66 -219 37 -333 -15 -58 -133 -315 -144 -315 -23 0 -251 64 -300 84 -76 31 -179 103 -219 153 -49 63 -109 193 -88 193 2 0 49 -5 105 -10 170 -18 278 -60 368 -143 50 -46 48 -52 32 106 -13 118 -3 254 29 396 l16 74 67 -70 c41 -43 79 -95 97 -135z m-3197 -454 c107 -150 199 -350 199 -433 0 -17 4 -31 8 -31 4 0 30 23 57 51 28 28 77 65 110 84 61 34 261 102 271 93 9 -10 -27 -130 -57 -191 -41 -81 -145 -181 -244 -236 -44 -24 -92 -52 -107 -62 l-28 -19 -95 96 c-169 171 -230 271 -256 419 -9 51 -9 84 0 137 13 77 60 204 71 191 4 -4 36 -49 71 -99z m3467 83 c6 -7 21 -48 33 -92 17 -65 21 -98 17 -176 -4 -86 -9 -106 -42 -176 -47 -98 -95 -162 -214 -285 l-93 -96 -87 50 c-150 86 -226 152 -281 242 -27 43 -82 196 -76 207 6 9 86 -7 161 -31 81 -27 146 -69 222 -143 42 -42 62 -56 62 -44 0 42 75 241 124 330 52 94 144 226 157 227 4 0 11 -6 17 -13z m-1908 -131 c0 -3 16 -136 35 -297 20 -161 35 -298 33 -306 -4 -21 -408 320 -408 344 0 16 148 170 187 195 59 37 153 76 153 64z m381 -51 c55 -34 141 -117 180 -172 l29 -41 -118 -108 c-150 -138 -281 -248 -287 -242 -8 7 61 593 71 610 6 10 74 -15 125 -47z m297 -444 c14 -79 14 -104 3 -179 -7 -48 -16 -91 -20 -95 -5 -5 -55 -10 -112 -11 -80 -2 -119 -9 -169 -27 -68 -26 -180 -94 -180 -110 0 -5 -4 -9 -10 -9 -6 0 -10 29 -10 67 0 65 1 67 43 107 113 108 422 365 430 357 4 -4 16 -50 25 -100z m-872 -64 c104 -89 204 -175 222 -191 31 -28 32 -32 32 -105 l0 -75 -32 31 c-74 70 -195 113 -333 118 l-100 4 -12 30 c-7 17 -16 61 -19 99 -9 93 19 252 44 252 5 0 94 -73 198 -163z m-1537 25 c153 -115 258 -233 340 -384 24 -43 46 -78 49 -78 4 0 19 24 35 53 39 74 109 151 202 220 l80 59 3 -116 c2 -101 0 -125 -22 -190 -29 -86 -90 -192 -157 -273 l-46 -56 13 -61 c17 -81 39 -140 74 -202 l29 -51 -40 -39 -40 -39 -114 39 c-255 86 -417 230 -484 433 -28 84 -28 106 2 98 121 -36 363 -160 426 -219 33 -30 34 -31 27 -6 -4 14 -14 63 -23 110 l-17 85 -65 33 c-170 85 -315 261 -356 434 -15 64 -20 164 -9 192 7 19 19 14 93 -42z m3818 -46 c-11 -158 -60 -268 -172 -382 -64 -65 -198 -164 -251 -184 -16 -7 -23 -23 -32 -77 -6 -37 -14 -83 -18 -101 l-7 -34 54 41 c69 52 158 99 284 149 126 50 145 56 145 43 0 -5 -11 -45 -25 -89 -64 -204 -226 -348 -501 -448 -105 -38 -106 -38 -146 19 -18 24 -19 33 -9 49 41 66 70 142 81 214 l13 82 -32 33 c-136 142 -211 347 -194 531 l6 66 50 -31 c78 -48 169 -143 220 -231 l46 -78 18 31 c10 17 38 67 62 111 55 100 138 199 227 271 86 69 165 119 177 112 6 -3 7 -45 4 -97z m-2317 -317 c88 -14 140 -39 201 -96 59 -55 87 -104 96 -168 6 -44 5 -45 -23 -45 -46 1 -163 46 -220 86 -81 55 -215 210 -197 228 9 9 70 7 143 -5z m850 -5 c0 -16 -76 -108 -135 -163 -85 -79 -208 -141 -282 -141 -20 0 -23 5 -23 38 0 103 105 214 245 258 41 13 195 19 195 8z m-1486 -348 c121 -184 140 -291 114 -644 -9 -129 -15 -165 -28 -172 -34 -18 -191 -49 -275 -55 -190 -13 -346 44 -475 173 -64 64 -130 159 -130 188 0 11 114 -4 280 -36 161 -31 329 -81 436 -130 l61 -27 -38 65 c-114 195 -132 461 -46 684 26 68 26 68 101 -46z m2107 7 c37 -117 50 -298 30 -405 -16 -80 -62 -200 -100 -260 l-30 -47 47 21 c155 68 441 147 620 171 l103 14 -6 -26 c-10 -42 -93 -158 -148 -206 -67 -59 -149 -101 -233 -121 -135 -32 -414 -6 -493 45 -12 7 -17 58 -25 234 -11 260 -3 328 57 467 32 74 122 209 139 210 4 0 21 -44 39 -97z m-1674 -525 c75 -98 113 -214 113 -347 0 -33 8 -67 21 -92 24 -48 25 -46 -79 -130 -136 -110 -268 -160 -422 -161 -146 -2 -272 40 -370 122 l-35 29 65 29 c152 69 312 102 496 102 l123 0 -35 73 c-41 87 -64 187 -64 282 0 78 16 188 31 217 9 17 14 15 61 -24 28 -24 70 -69 95 -100z m1294 75 c18 -83 16 -245 -4 -320 -13 -48 -62 -166 -84 -203 -2 -3 51 -4 117 -2 134 4 235 -12 365 -54 72 -23 195 -79 195 -88 0 -2 -24 -20 -52 -40 -117 -79 -283 -118 -421 -98 -100 15 -170 43 -263 103 -74 49 -184 144 -184 160 0 4 11 21 25 37 22 26 25 40 25 102 0 83 21 172 58 250 28 58 170 210 196 210 10 0 19 -21 27 -57z m-926 -225 c62 -57 106 -136 135 -243 25 -91 51 -129 74 -105 7 8 21 49 31 90 23 97 67 182 128 242 50 50 145 111 159 102 14 -9 9 -215 -7 -274 -21 -78 -78 -189 -125 -242 l-40 -46 57 -17 c252 -73 388 -147 507 -275 31 -34 56 -64 54 -66 -2 -2 -31 -10 -63 -19 -69 -18 -228 -21 -296 -6 -102 23 -222 92 -348 201 l-73 62 -31 -30 c-53 -49 -197 -152 -257 -182 -97 -49 -170 -63 -300 -57 -116 5 -190 20 -190 38 0 5 34 42 75 82 114 111 255 187 445 242 52 15 96 28 97 29 2 1 -19 25 -46 53 -96 103 -149 266 -137 417 4 43 9 83 12 88 8 13 81 -31 139 -84z"></path></g></svg></svg></g></svg>